/* XPM */
static char *_1425_0db36f8caaea1982307f7407e60d96d33c08513ff9e1dbae0d27c10ece08eb9d[] = {
/* columns rows colors chars-per-pixel */
"89 89 78 1 ",
"  c #000000",
". c #0C0C0B",
"X c #0F100E",
"o c #10110F",
"O c #131412",
"+ c #171916",
"@ c #181A17",
"# c #1B1D1B",
"$ c #1E211D",
"% c #20241F",
"& c #232522",
"* c #262924",
"= c #292D27",
"- c #2C2D2B",
"; c #2D322B",
": c #30352E",
"> c #333532",
", c #363B33",
"< c #393E36",
"1 c #3C3C3C",
"2 c #3D433A",
"3 c #40473E",
"4 c #41483F",
"5 c #434343",
"6 c #454C42",
"7 c #484F45",
"8 c #4C4C4C",
"9 c #495047",
"0 c #4D544A",
"q c #51574E",
"w c #51584F",
"e c #545454",
"r c #555C53",
"t c #5A5A5A",
"y c #596057",
"u c #5D635B",
"i c #61675F",
"p c #646464",
"a c #656B63",
"s c #686D66",
"d c #6A6D6A",
"f c #6D726C",
"g c #70766F",
"h c #727472",
"j c #767A75",
"k c #7C7D7C",
"l c #7D817C",
"z c #808080",
"x c #858985",
"c c #8C8D8C",
"v c #8D918D",
"b c #8F9390",
"n c #939593",
"m c #959996",
"M c #9B9D9B",
"N c #9DA09E",
"B c #9FA2A0",
"V c #A2A4A3",
"C c #A7AAA9",
"Z c #A8A8A8",
"A c #AFB1B1",
"S c #B3B4B4",
"D c #B7B8B8",
"F c #BCBCBC",
"G c #C0BFBF",
"H c #C6C6C6",
"J c #C9C6C6",
"K c #CDCACA",
"L c #D2CFCE",
"P c #D7D4D3",
"I c #D9D7D5",
"U c #DFDCDC",
"Y c #E1DFDE",
"T c #E5E3E3",
"R c #E8E7E6",
"E c #EFEEED",
"W c #F6F5F5",
"Q c #FEFEFE",
/* pixels */
"zzzzzzzzzzzzzzzzzzzzzzzzkzzzzzzzkzzzzzzzzzzzzzkzzzzzzzzzzzzzzzzzzzzzzzzzzzzzzzzzzzzzzzzzz",
"zzkzzzzzzzzzzzzzzzzzzzzzzzzzzzzzzzzzzzzzzzzzzzzzzzzzzzkzzzzzzzzzzzzzzzzzzzzzzzzzzzzzzzzzz",
"zzzzzzzzzzzzzzzzkzzzzzzzzzzzzzzzzzzzzzzzzzzzzzzzzzzzzzzzzzzzzzkzzzzzzzzzzzzzkzzzzzzzzkzzz",
"zzzzzzzzzzkzzzzzzzzzzzzzzzzzzzzzzzzzzzkzzzzzzzzzzzzzzzzzzzzzzzzzzzzzzzzzzzzzzzzzzzzkzzzzz",
"zzzzzzzkzzzzzkzzzzzzzzzzzzzzkzzzzzzzzzzzzzzzzzzzzzkzzzzzzkzzzzzzzzzzzzzzzzzzzzzzzkzzzzzzz",
"zzzzzmZZZZZZZZZZZZZZZZZZZZZZZZZZZZZZZZZZZZZZZZZZZZZZZZZZZZZZZZZZZZZZCZZCZVZZZZZZZZZZZZZZZ",
"zzzzzZHHHHHHHHHHHHHHHHHHHHHHHHHHHHHHHHHHHHHHHHHHHHHHHHHHHHHHHHHHHHHHHHHHHHHHHHHHHHHHHHHHH",
"zzzzzZHHHHHHHHHHHHHHHHHHHHHHHHHHHHHHHHHHHHHHHHHHHHHHHHHHHHHHHHHHHHHHHHHHHHHHHHHHHHHHHHHHH",
"zzzzzZHHHHHHHHHHHHHHHHHHHHHHHHHHHHHHHHHHHHHHHHHHHHHHHHJHHHHHHHHHHHHHHHHKHHHHHHHHHHHHHHHHH",
"zzzzzZHHHHHHHHHHHHHHHHHHHHHHHHHHHHHHHHHHHHHHHJHHHHHHHHHHHHHHHHHHHHHHHHHHHHHHHHHHHHHHHHHHH",
"zzzzzZHHHHHHHHHHHHHHHHHHHHHHHHHHHHHHHHHHHHHHGzpthZHHHHHHHHHHHHHHHHHHHHHHHHHHHHHHHHHHHHHHH",
"zzzzkZHHHHHHHHHHHHHHHHHHHHHHHHHHHHHHHHHHHHHHx    5HHHHHHHHHHHHHHHHHHHHHHHHHHHHHHHHHHJHHHH",
"zzzzzZHHHJHHHHHHHHHHHHHHHHHHHHHHHHHHHHHHHHHHx    5HHHHHHHHHHHHHHHHHHHHHHHHHHHHHHHHHHHHHHH",
"zzzzzZHHHHHHHHHHHHHHHHHHHHHHHHHHHHHHHHHHHHHHx    5HHHHHHHHHHHHHHHHHHHHHHHHHHHHHHHHHHHHHHH",
"zzzkzZHHHHHHHHHHHHHHHHHHHHHHHHHHHHHHHHHHHHHHx    5HHHHHHHHHHHHHHHHHHHHHHHHHHHHHHHHHHHHHHH",
"zzzzzZHHHHHHHHHHHHHHHHHHHHHHHHHHHHHHHHHHHHHHx    5HHHHHHHHHHHHHHHHHHHHHHHHHHHHHHHHHHHHHHH",
"zzzzzVJHHHHHHHHHHHHHHHHHHHHHHHHHHHHHHHHHHHHHx    5HHHHHHHHHHHHHHHHHHHHHHHHHHHHHHHHHHHHHHH",
"zzzzzZHHHHHHHHHHHHHHHHHHHHHHHHHHHHHHHHHHHHHHx    5HHHHHHHHHHHHHHHHHHHHHHHHHHHHHHHHHHHHHHH",
"zzzzzZHHHHHHHHHHHHHHHHHHHHHHHHHHHHHHHHHHHHHHh    #FHHHHHHHHHHHHHHHHHHHHHHHHHHHHHHHHHHHHHH",
"zzzzzZHHHHHHHHHHHHHHHHHHHHHHHHHHHHHHHHHHHHHH&     8HHHHHHHHHHHHHHHHHHHHHHHHHHHHHHHHHHHHHH",
"zzzzzZHHHHHHHHHHHHHHHHHHHHHHHHHHHHHHHHHHHHHb      .DHHHHHHHHHHHHHHHHHHHHHHHHHHHHHHHHHHHHH",
"zzzzzZHHHHHHHHHHHHHHHHHHSHHHHHHHHHHHJHHHHHHt       cHHJJHHHHHHHHHHHHHAHHHHHHHHHHHHHHHHHHH",
"zzzzzZHHHHHHHHHHHHHHHHHk#1HHHHHHHHHHHHHbt*          O5jDHHHHHHHHHHHHjo1ZHHHHHHJHHHHHHJHHH",
"zzzzzZHHHHHHHHHHHHHHHHz   1GHHHHHHHHStO                 1nHHHHHHHHHkX  -GHHHHHHHHHHHHHHHH",
"zkzzzZHHHHHHHHHHHHHHHS$    1FHHHHHSe                      -cHHHHHHkX    pHHKHHHHHHHHHHHHH",
"zzzzzZHHHHHHHHHHHHHHHH1     .@1ZHh.                         5AHHGz.    OcHHHHHHHHHHHHHHHH",
"zzzzzZHHHHHHHHHHHHHHHHG1       #>                            Xe-.     OcHHHHHHHHHHHHHHHHH",
"zzzzzZHHHHHHHHHHHHHHHHHG1                                            OcHHHHHHHHHHHHHHHHHH",
"zzkzzZHHHHHHHHHHHHHHHHHHHo                                          .cHHHHHHHHHHHHHHHHHHH",
"zzzzzZHHHHHHHHHHHHHHHHHJH5                                          5HHHHHHHHHHHHHHHHHHHH",
"zzzzzZHHHHHHHHHHHHHHHHHHHk             ..X.X.                       pHHHHHHHHHHHHHHHHHHHH",
"zzzzzZHHHHHHHHHHHHHHHHHHHHe         .X+$%&*&$#O.                   oZHHHHHHHHHHHHHHHHHHHH",
"zzzzzZHHHHHHHHHHHHHHHHHHHH8        o#%=:,2<<:;*$O.                 .ZHHHHHHHHHHHHHHHHHHHH",
"zzzzzZHHHHHHHHJHHHHHHHHHHm       .O%;23900q0962:&+.                 5HHHHHHHHHHHHHHHHHHHH",
"zzzzzZHHHHHHHHHHHHHHHHHHH#       O*:20yisffsay04,=@.                 cHHHHHHHHHHHHHHHHHHH",
"zzzzzZHHHHHHHHHHHHHHHHHHj       O&,4wiflxxxxljsy6<*+.                *HHHHHHHHHHHHHHHHHHH",
"zkzzzZHHHHHHHHHHHHHHHHHH$      X$:2rsjxmMVVNmvlfu6,*O                 cHHHHHHHHHHHHHHHHHH",
"zzzzzZHHHHHHHHHHHHHHHHHc       +=2wslvNASDDDSVmzfy4;$.                1HHHHJHHHHHHHHHHJHH",
"zzzzzZHHHHHHHHHHHHHHHHJ5      X$,6ujvBSFGHGHFDCnls02&O                 DHHHHHHHHHHHHHHHHH",
"zzzzzZHHHHHHHHHHHHHHHHH.      o*2wsxMSFHKLLKHGDVvhy2;+                 jHHHHHHHHHHHHHHHHH",
"zzkzzZHHHHHHHHHHHHHHHHm       O;2yjvCDHLIEWWUJFAmli9:$.                5HHHHHHHHHHHHHHHHH",
"zzzzzZHHHHHHHHHHHHHHHHp      .#:6ulmAFJPWQQQQYGDNzs0,$.                OHHHHHHHHHHHHHHHHH",
"zzzzzZHHHHHHHHHHHHHHHH5       #;6ilmSFKRQQQQQQHDBxs0<%.                 SHHHHHHHHHHHHHHHH",
"zzzzzZHHHHHHHHHHHHHHHH&      .#;6ulmSGJEQQQQQQHSNxf0,&.                 mHHHHHHHHHHHHHHHH",
"zzzzzZHHHHFzzkzkkzkkzk.       +;4ujnAFHRQQQQQQGSNls0,$.                 ekkzzzkzzzzNHHHHH",
"zzzzzZHHHHk                   O=2rgxVSGLQQQQQTFCbju6;#.                            5HHHHH",
"zzkzzZHHHHt                   o*<0slnCDGKEQWUFAMxfr2=+                             -HHHHH",
"zzzzzZHHHH8                    #;4rfxmCDFFFFDANcju7,&.                             *HHHHH",
"zzzzzZHHHHd                    X&,9ufxmVCAAACmcjiw2=+.                             1HHHHH",
"zzzzzZHHHHV55555555555.        .#=29uflxbnmbcljiw2:$.                   -5555555555fHHHHH",
"zkzzzZHHHHHHHHHHHHHHHH>         .#=29rifjlljgsu03:%O                    VHHHHHHHHHHHHHHHH",
"zzzzzZHHHHHHHHHHHHHHHH8          X$=,40ryuuyy042;%O                     FHHHHHHHHHHHHHHHH",
"zzzzzZHHHHHHHHHHHHHHHHk           .@&;,244442<:=$X                     &JHHHHHHHHHHHHHHHH",
"zzzzzZHHHHHHHHHHHHHHHHZ            .X+%=;;;:=*#O.                      tHHHHHHHHHHHHHHHHH",
"zzzzzZHHHHHHHHHHHHHHHHH$             .XO#$#+OX.                        bHHHHHHHHHHHHHHHHH",
"zzzzkZHHHHHHHHHHHHHHHHHd                                              +HHHHHHHHHHHHHHHHHH",
"zzzzzZHHHHHHHHHHHHHJHHHZ                                              tHHHHHHHHHHHHHHHHHH",
"zzzzzZHHHHHHHHHHHHHHHHHH5                                            .ZHHHHHHHHHHHHHHHHHH",
"zzzzzZHHHHHHHHHHHHHHHHHHV                                            eHHHHHHHHHHHHHHHHHHH",
"zzzzzCHHHHHHHHHHHHHHHHHHH8                                          .SHHHHHHHHHHHHHHHHHHH",
"zzzzzZHHHHHHJHHHHHHHHHHHHF.                                         hHHHHHHHHHHHHHHHHHHHH",
"zzkzzZHHHHHHHHHHHHHHHHHHHHc                                        >HHHHHHHHHHHHHHHHHHHHH",
"zzzzzZHHHHHHHHHHHHHHHHHHHHp                                        >HHHHHHHHHHHHHKHHHHHHH",
"zzzzzZHHHHHHHHHHHHHHHHHHHH@                                         kHHHHHHHHHHHHHHHHHHHH",
"zzzzzZHHHHHHHHHHHHHHHHHHHM                                          tHHHHHHHHHHHHHHHHHHHH",
"zzzzzZHHHHHHHHHHHHHHHHHHHh                                          #GHHHHHHHHHHHHHHHHHHH",
"zzzzkZHHHHHHHHHHHHHHHHHHkX                                           1HHHHHHHHHHHHHHHHHHH",
"zzzzzZHHHHHHHHHHHHHHHHHk.      &pX                           8,       1FHHHHHHHHHHHHHHHHH",
"zzkzzZHHHHHHHHHHHHHHHHkX    .5dDHDe                        #nHJke#     1HHHHHHHHHHHHHHHHH",
"zzzzzZHHHHHHHHHHHHHHHAo    OcHHHHHJZ8                    #hGHHHHHH1     eHHHHHHHHHHHHHHHH",
"zzzzzZHHHHHHJHHHHJHHHH1   OcHHHHHHHHHAp$              .5cHHHHHHHHHF1   .MHHHHHHHHHHHHHHHH",
"zzzzzZHHHHHHHHHHHHHHHHV* +bHHHHHHHHHHHHHZk8>.    .&5pmHHHHHHHHHHHHHH1 .tHHHHHHHHHHHHHHHHH",
"zzzzzZHHHHHHHHHHHHHHHHHHpcHHHHHHHHHHHHHHHHHHx    5HHHHHHHHHHHHHHHHHHHeMHHHHHHHHHHHHHHHHHH",
"zzzzzZHHHHHHHHHHHHHHHHHHHHHHHHHHHHHHHHHHHHHHx    5HHHHHHHHHHHHHHHHHHHHHHHHHHHHHHHHHHHHHHH",
"zzzzzZHHHHHHHHHHHHHHHHHHHHJHHHHHHHHHHHHHHHHHc    5HHHHHHHHHHHHHHHJHHHHHHHHHHHHHHHHHHHHHHH",
"zzzzkZHHHHHHHHHHHHHHHHKHHHHHHHHHHHHHHHHHHHHHx    5HHHHHHHHHHHHHHHHHHHHHHHHHHHHHHHHHHHHHHH",
"zkzzzZHHHHHHHHHHHHHHHHHHHHHHHHHHHHHHHHHHHHHHx    5HHHHHHHHHHHHHHHHHHHHHHHHHHHHHHHHHHHHHHH",
"zzzzzZHHHHHHHHHHHHHHHHHHHHHHHHHHHHHHHHHJHHHHx    5HHHHHHHHHHHHHHHHHHHHHHHHHHHHHHHHHHHHHHH",
"zzzzzZHHHHHHHHHHHHHHHHHHHHHHHHHHHHHHHHHHHHHHc    5HHHHHHHHHHHHHHHHHHHHHHHHHHHHHHHHHHHHHHH",
"zzzzzZHHHHHHHHHHHHHHHHHHHHHHHHHHHHHHHHHHHHHHx    5HHHHHHHHHHHHHHHHHHHHHHHHHHHHHHHHHHHHHHH",
"zzzzzZHHHHHHHHHHHHHHHHHHHHHHHHHHHHHHHHHHHHHHx    5HHHHHHHHHHHHHHHHHHHHHHHHHHHHHHHHHHHHHHH",
"zzzzzZHHHHHHHHHKHHHHHHHHHHHHHHHHHHHHHHHHHHHHc    5HHHHHHHHHHHHHHHHHHHHHHHHHHHHHHJHHHHHHHH",
"zzzzzCHHHHHHHHHHHHHHHHHHHHHHHHHHHHHHHHHHHHHHx    5HHHHHHHHHHHHHHHHHHHHHHHHHHHHKHHHHHHHHHH",
"zzzzzZHHHHHHHHHHHHHHHHHHHHHHHHHHHHHHHHHHHHHHV5-$1dHHHHHHHHHHHHHHHHHHHHHHHHHHHHHHHHHHHHHHH",
"zzzzzCHHHHHHHHHHHHHHHHHHHHHHHHHHHHHHHHHHHHHHHHHHHHHHHHHHHHHHHHHHHHHHHHHHHHHHHHHHHHHHHHHHH",
"zzzzzCHHHHHHHHHHHHHHHHHHHHHHHHHHHHHHHHHHHHHHHHHHHHHHHHHHHHHHHHHHHHHHHHHHHHHHHHHHHHHHHHHHH",
"zzzzzCHHHHHHHHHHHHHHHHHHHHHHHHHHHHHHHHHHHHHHHHHHHHHHHHHHHHHHHHHHKHHHHHHHHHHHHHHHHHHHHHHHH",
"zzzzzCHHHHHHHHHHHHHHHHHHHHHHHHHHHHHHHHHHHHHHHHHHHHHHHHHHHHHHHHHHHHHHHHHHHHHHHHHHHHHHHHHHH",
"zzzzzZGHHHHHHHHHHHHHHHHHHHHHHHHHHHHHHHHHHHHHHHHHHHHHHHHHHHHHHHHHHHHHHHHHHHHHHHHHHHHHHHHHH"
};
