/* XPM */
static char *_4732_027fabf75443cd55ef492f8279b03d659d23a44b187b9098d1bd3f5aaaef655f[] = {
/* columns rows colors chars-per-pixel */
"89 89 9 1 ",
"  c #808080",
". c gray51",
"X c #8E8E8E",
"o c gray72",
"O c gray75",
"+ c #C6C6C6",
"@ c #F4F4F4",
"# c #FDFDFD",
"$ c white",
/* pixels */
"$$$$$$$$$$$$$$$$$$$$$$$$$$$$$$$$$$$$$$$$$$$$$$$$$$$$$$$$$$$$$$$$$$$$$$$$$$$$$$$$$$$$$$$$o",
"$$$$$$$$$$$$$$$$$$$$$$$$$$$$$$$$$$$$$$$$$$$$$$$$$$$$$$$$$$$$$$$$$$$$$$$$$$$$$$$$$$$$$$$O ",
"$$$$$$$$$$$$$$$$$$$$$$$$$$$$$$$$$$$$$$$$$$$$$$$$$$$$$$$$$$$$$$$$$$$$$$$$$$$$$$$$$$$$$$O  ",
"$$$$$$$$$$$$$$$$$$$$$$$$$$$$$$$$$$$$$$$$$$$$$$$$$$$$$$$$$$$$$$$$$$$$$$$$$$$$$$$$$$$$$O   ",
"$$$$$$$$$$$$$$$$$$$$$$$$$$$$$$$$$$$$$$$$$$$$$$$$$$$$$$$$$$$$$$$$$$$$$$$$$$$$$$$$$$$$O    ",
"$$$$$$$$$$$$$$$$$$$$$$$$$$$$$$$$$$$$$$$$$$$$$$$$$$$$$$$$$$$$$$$$$$$$$$$$$$$$$$$$$$$O     ",
"$$$$$$$$$$$$$$$$$$$$$$$$$$$$$$$$$$$$$$$$$$$$$$$$$$$$$$$$$$$$$$$$$$$$$$$$$$$$$$$$$$O      ",
"$$$$$$$$$$$$$$$$$$$$$$$$$$$$$$$$$$$$$$$$$$$$$$$$$$$$$$$$$$$$$$$$$$$$$$$$$$$$$$$$$O       ",
"$$$$$$$$$$$$$$$$$$$$$$$$$$$$$$$$$$$$$$$$$$$$$$$$$$$$$$$$$$$$$$$$$$$$$$$$$$$$$$$$O        ",
"$$$$$$$$$$$$$$$$$$$$$$$$$$$$$$$$$$$$$$$$$$$$$$$$$$$$$$$$$$$$$$$$$$$$$$$$$$$$$$$O         ",
"$$$$$$$$$$#@@@@@@@@@@@@@@@@@@@@@@@@@@@@@@@@@@@@@@@@@@@@@@@@@@@@@@@@@@@@@@@@@@@O          ",
"$$$$$$$$$$@+++++++++++++++++++++++++++++++++++++++++++++++++++++++++++++++++++X          ",
"$$$$$$$$$$@+++++++++++++++++++++++++++++++++++++++++++++++++++++++++++++++++++X          ",
"$$$$$$$$$$@+++++++++++++++++++++++++++++++++++++++++++++++++++++++++++++++++++X          ",
"$$$$$$$$$$@+++++++++++++++++++++++++++++++++++++++++++++++++++++++++++++++++++X          ",
"$$$$$$$$$$@+++++++++++++++++++++++++++++++++++++++++++++++++++++++++++++++++++X          ",
"$$$$$$$$$$@+++++++++++++++++++++++++++++++++++++++++++++++++++++++++++++++++++X          ",
"$$$$$$$$$$@+++++++++++++++++++++++++++++++++++++++++++++++++++++++++++++++++++X          ",
"$$$$$$$$$$@+++++++++++++++++++++++++++++++++++++++++++++++++++++++++++++++++++X          ",
"$$$$$$$$$$@+++++++++++++++++++++++++++++++++++++++++++++++++++++++++++++++++++X          ",
"$$$$$$$$$$@+++++++++++++++++++++++++++++++++++++++++++++++++++++++++++++++++++X          ",
"$$$$$$$$$$@+++++++++++++++++++++++++++++++++++++++++++++++++++++++++++++++++++X          ",
"$$$$$$$$$$@+++++++++++++++++++++++++++++++++++++++++++++++++++++++++++++++++++X          ",
"$$$$$$$$$$@+++++++++++++++++++++++++++++++++++++++++++++++++++++++++++++++++++X          ",
"$$$$$$$$$$@+++++++++++++++++++++++++++++++++++++++++++++++++++++++++++++++++++X          ",
"$$$$$$$$$$@+++++++++++++++++++++++++++++++++++++++++++++++++++++++++++++++++++X          ",
"$$$$$$$$$$@+++++++++++++++++++++++++++++++++++++++++++++++++++++++++++++++++++X          ",
"$$$$$$$$$$@+++++++++++++++++++++++++++++++++++++++++++++++++++++++++++++++++++X          ",
"$$$$$$$$$$@+++++++++++++++++++++++++++++++++++++++++++++++++++++++++++++++++++X          ",
"$$$$$$$$$$@+++++++++++++++++++++++++++++++++++++++++++++++++++++++++++++++++++X          ",
"$$$$$$$$$$@+++++++++++++++++++++++++++++++++++++++++++++++++++++++++++++++++++X          ",
"$$$$$$$$$$@+++++++++++++++++++++++++++++++++++++++++++++++++++++++++++++++++++X          ",
"$$$$$$$$$$@+++++++++++++++++++++++++++++++++++++++++++++++++++++++++++++++++++X          ",
"$$$$$$$$$$@+++++++++++++++++++++++++++++++++++++++++++++++++++++++++++++++++++X          ",
"$$$$$$$$$$@+++++++++++++++++++++++++++++++++++++++++++++++++++++++++++++++++++X          ",
"$$$$$$$$$$@+++++++++++++++++++++++++++++++++++++++++++++++++++++++++++++++++++X          ",
"$$$$$$$$$$@+++++++++++++++++++++++++++++++++++++++++++++++++++++++++++++++++++X          ",
"$$$$$$$$$$@+++++++++++++++++++++++++++++++++++++++++++++++++++++++++++++++++++X          ",
"$$$$$$$$$$@+++++++++++++++++++++++++++++++++++++++++++++++++++++++++++++++++++X          ",
"$$$$$$$$$$@+++++++++++++++++++++++++++++++++++++++++++++++++++++++++++++++++++X          ",
"$$$$$$$$$$@+++++++++++++++++++++++++++++++++++++++++++++++++++++++++++++++++++X          ",
"$$$$$$$$$$@+++++++++++++++++++++++++++++++++++++++++++++++++++++++++++++++++++X          ",
"$$$$$$$$$$@+++++++++++++++++++++++++++++++++++++++++++++++++++++++++++++++++++X          ",
"$$$$$$$$$$@+++++++++++++++++++++++++++++++++++++++++++++++++++++++++++++++++++X          ",
"$$$$$$$$$$@+++++++++++++++++++++++++++++++++++++++++++++++++++++++++++++++++++X          ",
"$$$$$$$$$$@+++++++++++++++++++++++++++++++++++++++++++++++++++++++++++++++++++X          ",
"$$$$$$$$$$@+++++++++++++++++++++++++++++++++++++++++++++++++++++++++++++++++++X          ",
"$$$$$$$$$$@+++++++++++++++++++++++++++++++++++++++++++++++++++++++++++++++++++X          ",
"$$$$$$$$$$@+++++++++++++++++++++++++++++++++++++++++++++++++++++++++++++++++++X          ",
"$$$$$$$$$$@+++++++++++++++++++++++++++++++++++++++++++++++++++++++++++++++++++X          ",
"$$$$$$$$$$@+++++++++++++++++++++++++++++++++++++++++++++++++++++++++++++++++++X          ",
"$$$$$$$$$$@+++++++++++++++++++++++++++++++++++++++++++++++++++++++++++++++++++X          ",
"$$$$$$$$$$@+++++++++++++++++++++++++++++++++++++++++++++++++++++++++++++++++++X          ",
"$$$$$$$$$$@+++++++++++++++++++++++++++++++++++++++++++++++++++++++++++++++++++X          ",
"$$$$$$$$$$@+++++++++++++++++++++++++++++++++++++++++++++++++++++++++++++++++++X          ",
"$$$$$$$$$$@+++++++++++++++++++++++++++++++++++++++++++++++++++++++++++++++++++X          ",
"$$$$$$$$$$@+++++++++++++++++++++++++++++++++++++++++++++++++++++++++++++++++++X          ",
"$$$$$$$$$$@+++++++++++++++++++++++++++++++++++++++++++++++++++++++++++++++++++X          ",
"$$$$$$$$$$@+++++++++++++++++++++++++++++++++++++++++++++++++++++++++++++++++++X          ",
"$$$$$$$$$$@+++++++++++++++++++++++++++++++++++++++++++++++++++++++++++++++++++X          ",
"$$$$$$$$$$@+++++++++++++++++++++++++++++++++++++++++++++++++++++++++++++++++++X          ",
"$$$$$$$$$$@+++++++++++++++++++++++++++++++++++++++++++++++++++++++++++++++++++X          ",
"$$$$$$$$$$@+++++++++++++++++++++++++++++++++++++++++++++++++++++++++++++++++++X          ",
"$$$$$$$$$$@+++++++++++++++++++++++++++++++++++++++++++++++++++++++++++++++++++X          ",
"$$$$$$$$$$@+++++++++++++++++++++++++++++++++++++++++++++++++++++++++++++++++++X          ",
"$$$$$$$$$$@+++++++++++++++++++++++++++++++++++++++++++++++++++++++++++++++++++X          ",
"$$$$$$$$$$@+++++++++++++++++++++++++++++++++++++++++++++++++++++++++++++++++++X          ",
"$$$$$$$$$$@+++++++++++++++++++++++++++++++++++++++++++++++++++++++++++++++++++X          ",
"$$$$$$$$$$@+++++++++++++++++++++++++++++++++++++++++++++++++++++++++++++++++++X          ",
"$$$$$$$$$$@+++++++++++++++++++++++++++++++++++++++++++++++++++++++++++++++++++X          ",
"$$$$$$$$$$@+++++++++++++++++++++++++++++++++++++++++++++++++++++++++++++++++++X          ",
"$$$$$$$$$$@+++++++++++++++++++++++++++++++++++++++++++++++++++++++++++++++++++X          ",
"$$$$$$$$$$@+++++++++++++++++++++++++++++++++++++++++++++++++++++++++++++++++++X          ",
"$$$$$$$$$$@+++++++++++++++++++++++++++++++++++++++++++++++++++++++++++++++++++X          ",
"$$$$$$$$$$@+++++++++++++++++++++++++++++++++++++++++++++++++++++++++++++++++++X          ",
"$$$$$$$$$$@+++++++++++++++++++++++++++++++++++++++++++++++++++++++++++++++++++X          ",
"$$$$$$$$$$@+++++++++++++++++++++++++++++++++++++++++++++++++++++++++++++++++++X          ",
"$$$$$$$$$$@+++++++++++++++++++++++++++++++++++++++++++++++++++++++++++++++++++X          ",
"$$$$$$$$$$OXXXXXXXXXXXXXXXXXXXXXXXXXXXXXXXXXXXXXXXXXXXXXXXXXXXXXXXXXXXXXXXXXXX.          ",
"$$$$$$$$$O                                                                               ",
"$$$$$$$$O                                                                                ",
"$$$$$$$O                                                                                 ",
"$$$$$$O                                                                                  ",
"$$$$$O                                                                                   ",
"$$$$O                                                                                    ",
"$$$O                                                                                     ",
"$$O                                                                                      ",
"$O                                                                                       ",
"o                                                                                        "
};
